<svg class="cardUniversitySearchResultInfoHover--iconPlace" xmlns="http://www.w3.org/2000/svg" xmlns:xlink="http://www.w3.org/1999/xlink" width="500" zoomAndPan="magnify" viewBox="0 0 375 374.999991" height="500" preserveAspectRatio="xMidYMid meet" version="1.0"><defs><clipPath id="a878d362d1"><path d="M 84.390625 42.898438 L 290.640625 42.898438 L 290.640625 337.648438 L 84.390625 337.648438 Z M 84.390625 42.898438 " clip-rule="nonzero"/></clipPath></defs><rect x="-37.5" width="450" fill="#ffffff" y="-37.499999" height="449.999989" fill-opacity="1"/><rect x="-37.5" width="450" fill="#ffffff" y="-37.499999" height="449.999989" fill-opacity="1"/><g clip-path="url(#a878d362d1)"><path fill="#a7a7a7" d="M 187.515625 42.898438 C 130.574219 42.898438 84.390625 89.101562 84.390625 146.058594 C 84.390625 223.429688 187.515625 337.644531 187.515625 337.644531 C 187.515625 337.644531 290.640625 223.429688 290.640625 146.058594 C 290.640625 89.101562 244.453125 42.898438 187.515625 42.898438 Z M 187.515625 182.902344 C 167.183594 182.902344 150.683594 166.398438 150.683594 146.058594 C 150.683594 125.722656 167.183594 109.21875 187.515625 109.21875 C 207.84375 109.21875 224.34375 125.722656 224.34375 146.058594 C 224.34375 166.398438 207.84375 182.902344 187.515625 182.902344 Z M 187.515625 182.902344 " fill-opacity="1" fill-rule="nonzero"/></g></svg>